<svg width="47" height="13" viewBox="0 0 47 13" fill="none" xmlns="http://www.w3.org/2000/svg">
<path d="M17.3766 3.42285H14.8301C14.7459 3.42268 14.6644 3.45228 14.6 3.5064C14.5356 3.55977 14.4926 3.63458 14.4789 3.7171L13.4508 10.1494C13.446 10.1793 13.4479 10.2099 13.4563 10.239C13.4647 10.2681 13.4794 10.2949 13.4993 10.3177C13.5193 10.3407 13.5441 10.3591 13.5719 10.3716C13.5999 10.3842 13.6303 10.3906 13.6609 10.3904H14.8767C14.9608 10.3906 15.0423 10.361 15.1068 10.3069C15.1712 10.2535 15.2142 10.1787 15.2278 10.0962L15.5057 8.36032C15.5194 8.2778 15.5624 8.20299 15.6268 8.14962C15.6913 8.09554 15.7728 8.06596 15.8569 8.06607H16.6628C18.3399 8.06607 19.308 7.26627 19.5611 5.68119C19.6317 5.40406 19.6392 5.11461 19.583 4.8342C19.5268 4.55379 19.4084 4.28956 19.2366 4.061C18.9898 3.82835 18.6963 3.65108 18.3755 3.54103C18.0547 3.43097 17.7142 3.39068 17.3766 3.42285ZM17.6696 5.77322C17.5304 6.67353 16.8323 6.67353 16.156 6.67353H15.7715L16.041 4.99158C16.0489 4.94221 16.0742 4.89731 16.1124 4.86504C16.1511 4.83255 16.2 4.81475 16.2505 4.81479H16.4266C16.8862 4.81479 17.3203 4.81479 17.5443 5.07331C17.616 5.1733 17.6644 5.28801 17.6861 5.4091C17.7078 5.53018 17.7022 5.65458 17.6696 5.77322ZM24.9871 5.74416H23.7684C23.7179 5.74412 23.669 5.76192 23.6303 5.79441C23.5921 5.82664 23.5667 5.87156 23.5589 5.92095L23.505 6.25697L23.4196 6.13588C23.2332 5.9486 23.0067 5.80598 22.7572 5.71873C22.5078 5.63149 22.2418 5.60189 21.9793 5.63215C21.3109 5.64182 20.6682 5.89114 20.1682 6.33472C19.6682 6.77831 19.344 7.38668 19.2547 8.04912C19.1907 8.3713 19.1981 8.70362 19.2766 9.0226C19.3551 9.34158 19.5026 9.63944 19.7088 9.89514C19.9031 10.1049 20.1418 10.2686 20.4074 10.3744C20.673 10.4802 20.9589 10.5254 21.2442 10.5067C21.5582 10.5108 21.8698 10.4519 22.1606 10.3334C22.4513 10.215 22.7154 10.0394 22.9371 9.81704L22.8826 10.1512C22.8778 10.1812 22.8797 10.2118 22.888 10.2409C22.8964 10.2701 22.9111 10.2972 22.931 10.3202C22.951 10.3434 22.9758 10.3619 23.0037 10.3747C23.0316 10.3874 23.062 10.394 23.0927 10.394H24.191C24.2751 10.3942 24.3566 10.3646 24.421 10.3105C24.4856 10.257 24.5286 10.1819 24.5421 10.0992L25.2009 5.98634C25.2058 5.95649 25.204 5.92594 25.1957 5.89684C25.1875 5.86775 25.1729 5.84084 25.153 5.81802C25.1332 5.7951 25.1086 5.77672 25.081 5.76414C25.0516 5.75047 25.0195 5.74364 24.9871 5.74416ZM23.2876 8.08302C23.2383 8.40962 23.0711 8.70687 22.8177 8.91877C22.5644 9.13066 22.2422 9.24256 21.9121 9.23338C21.7602 9.24282 21.6081 9.21869 21.4666 9.1627C21.3252 9.10672 21.1978 9.02026 21.0935 8.90947C21.0011 8.79173 20.936 8.65494 20.9029 8.50898C20.8698 8.36302 20.8696 8.21153 20.9022 8.06546C20.9504 7.73876 21.1159 7.4408 21.3679 7.2273C21.6198 7.0138 21.9409 6.89937 22.2711 6.90542C22.4228 6.89124 22.5756 6.91347 22.717 6.97026C22.8583 7.02705 22.9841 7.11676 23.0838 7.23192C23.1835 7.34709 23.2543 7.4844 23.2903 7.63243C23.3263 7.78046 23.3264 7.93493 23.2907 8.08302H23.2876ZM31.4812 5.74416H30.2558C30.198 5.74416 30.1411 5.75808 30.0899 5.78472C30.0391 5.8112 29.9954 5.84964 29.9628 5.89673L28.2729 8.35003L27.5567 5.993C27.535 5.92019 27.4901 5.85643 27.4289 5.81136C27.3676 5.76654 27.2936 5.74237 27.2176 5.74234H26.0134C25.9797 5.7423 25.9466 5.75018 25.9165 5.76535C25.8866 5.78045 25.8606 5.80244 25.8408 5.82952C25.8212 5.85648 25.8083 5.88779 25.8034 5.92079C25.7984 5.95378 25.8015 5.98749 25.8124 6.01903L27.1619 9.92239L25.8905 11.6879C25.8679 11.7191 25.8545 11.7559 25.8517 11.7943C25.8489 11.8327 25.8569 11.8711 25.8747 11.9052C25.8927 11.9393 25.9198 11.9678 25.9528 11.9876C25.9862 12.0075 26.0242 12.0179 26.063 12.0179H27.2867C27.3437 12.018 27.4 12.0045 27.4507 11.9785C27.5012 11.9525 27.5446 11.9147 27.5773 11.8683L31.6556 6.07292C31.6777 6.04171 31.6907 6.00498 31.6932 5.96682C31.6957 5.92865 31.6875 5.89055 31.6695 5.85677C31.6515 5.8229 31.6244 5.79463 31.5914 5.77503C31.5582 5.75494 31.5201 5.74427 31.4812 5.74416Z" fill="#022273"/>
<path d="M35.5377 3.42302H32.9911C32.9072 3.42299 32.8259 3.45258 32.7617 3.50657C32.6973 3.55994 32.6543 3.63475 32.6406 3.71727L31.6119 10.1496C31.6072 10.1795 31.6091 10.2101 31.6175 10.2391C31.6258 10.2682 31.6405 10.2951 31.6603 10.3179C31.6802 10.3409 31.7048 10.3592 31.7324 10.3718C31.7601 10.3845 31.7903 10.3911 31.8208 10.3912H33.1274C33.1863 10.3906 33.2432 10.3691 33.2878 10.3306C33.3326 10.2931 33.3622 10.2406 33.3714 10.1829L33.6638 8.35867C33.6775 8.27615 33.7205 8.20134 33.7849 8.14797C33.8493 8.09389 33.9308 8.06431 34.0149 8.06442H34.8208C36.4985 8.06442 37.466 7.26462 37.7191 5.67954C37.7897 5.40237 37.7972 5.11288 37.7409 4.83245C37.6846 4.55202 37.5661 4.28782 37.394 4.05935C37.1476 3.82741 36.8546 3.65069 36.5345 3.54096C36.2144 3.43123 35.8745 3.39102 35.5377 3.42302ZM35.8331 5.77338C35.6945 6.67369 34.9964 6.67369 34.3195 6.67369H33.9356L34.2057 4.99174C34.2134 4.94232 34.2388 4.89737 34.2771 4.8652C34.3156 4.83276 34.3642 4.81496 34.4145 4.81495H34.5907C35.0503 4.81495 35.4844 4.81495 35.7084 5.07348C35.78 5.17351 35.8283 5.28825 35.8499 5.40934C35.8714 5.53042 35.8657 5.65479 35.8331 5.77338ZM43.15 5.74432H41.9294C41.8789 5.74418 41.83 5.76199 41.7914 5.79457C41.7531 5.82677 41.7277 5.87171 41.7199 5.92111L41.6661 6.25714L41.5807 6.13605C41.3943 5.94881 41.168 5.80622 40.9186 5.71897C40.6693 5.63173 40.4034 5.6021 40.1409 5.63231C39.4725 5.64187 38.8298 5.89114 38.3297 6.33475C37.8297 6.77835 37.5055 7.38679 37.4164 8.04928C37.3524 8.37147 37.3599 8.70377 37.4384 9.02273C37.5168 9.3417 37.6643 9.63956 37.8705 9.89531C38.0649 10.1051 38.3037 10.2688 38.5694 10.3746C38.8351 10.4804 39.1211 10.5255 39.4065 10.5068C39.7194 10.5105 40.0299 10.4515 40.3197 10.3334C40.6095 10.2153 40.8727 10.0404 41.0939 9.81902L41.0394 10.1532C41.0346 10.1832 41.0365 10.2139 41.0448 10.2431C41.0532 10.2723 41.0679 10.2993 41.0879 10.3222C41.1079 10.3451 41.1327 10.3635 41.1605 10.376C41.1884 10.3888 41.2188 10.3954 41.2495 10.3954H42.3472C42.4313 10.3956 42.5128 10.366 42.5773 10.3119C42.6417 10.2585 42.6847 10.1837 42.6984 10.1012L43.3577 5.98832C43.3625 5.95841 43.3606 5.92782 43.3522 5.89871C43.3438 5.86968 43.3291 5.84283 43.3093 5.82C43.2892 5.79702 43.2644 5.77864 43.2366 5.76612C43.209 5.75262 43.1789 5.74519 43.1482 5.74432H43.15ZM41.4505 8.08319C41.4013 8.40984 41.2342 8.70717 40.9808 8.91909C40.7273 9.13101 40.4051 9.24286 40.0749 9.23355C39.9231 9.2429 39.771 9.21873 39.6296 9.16275C39.4881 9.10677 39.3607 9.02036 39.2564 8.90963C39.1641 8.79182 39.0991 8.65503 39.066 8.50909C39.0329 8.36316 39.0326 8.21171 39.065 8.06563C39.1141 7.74007 39.2797 7.44338 39.531 7.2307C39.7824 7.01801 40.1023 6.90377 40.4315 6.90921C40.5828 6.90105 40.734 6.92615 40.8745 6.98274C41.0149 7.03934 41.1413 7.12605 41.2447 7.23676C41.3388 7.35418 41.4059 7.49091 41.4411 7.63721C41.4764 7.7835 41.479 7.93578 41.4487 8.08319H41.4505ZM44.5874 3.59981L43.5405 10.1496C43.5357 10.1794 43.5375 10.21 43.5457 10.2391C43.554 10.2682 43.5686 10.2951 43.5884 10.3179C43.6084 10.3409 43.6332 10.3593 43.661 10.3718C43.6888 10.3845 43.7189 10.3911 43.7494 10.3912H44.7999C44.8837 10.3917 44.9649 10.3623 45.029 10.3082C45.093 10.2542 45.1357 10.179 45.1492 10.0963L46.1785 3.66156C46.1832 3.63167 46.1813 3.60111 46.173 3.57203C46.1646 3.54295 46.1499 3.51606 46.1301 3.49325C46.11 3.47027 46.0852 3.45189 46.0574 3.43936C46.0297 3.4267 45.9995 3.4201 45.969 3.41999H44.7938C44.7435 3.4201 44.6949 3.43788 44.6564 3.47024C44.6178 3.50336 44.5926 3.54943 44.5856 3.59981H44.5874Z" fill="#167FC4"/>
<path d="M2.87682 11.6445L3.07177 10.4257L2.63827 10.4161H0.566406L2.00617 1.42084C2.01111 1.39281 2.02619 1.36759 2.04856 1.35C2.06962 1.33282 2.09585 1.32322 2.12303 1.32275H5.61528C6.77472 1.32275 7.57453 1.5607 7.99229 2.02992C8.1766 2.22852 8.30762 2.47055 8.37312 2.73346C8.43619 3.05329 8.43619 3.38236 8.37312 3.70218L8.36888 3.73064V3.97888L8.56444 4.08846C8.75933 4.18277 8.92728 4.3247 9.05279 4.50111C9.1783 4.67752 9.25731 4.88272 9.28251 5.09775C9.32732 5.4409 9.31175 5.78924 9.2365 6.12703C9.16245 6.53825 9.0174 6.93345 8.80783 7.29494C8.63599 7.58469 8.40542 7.83527 8.13094 8.03057C7.853 8.22061 7.5428 8.35848 7.21549 8.43743C6.84117 8.52828 6.45696 8.57201 6.07179 8.56761H5.80237C5.60833 8.56785 5.42048 8.63596 5.27138 8.76014C5.1246 8.88365 5.02652 9.05533 4.99469 9.2445L4.97411 9.35409L4.62779 11.5071L4.61204 11.5858C4.61103 11.6034 4.60321 11.6199 4.59025 11.6318C4.58001 11.6398 4.56749 11.6442 4.55453 11.6445H2.87682Z" fill="#022273"/>
<path d="M8.75345 3.76001C8.74296 3.8258 8.73105 3.89301 8.71773 3.96163C8.25698 6.29202 6.68159 7.09727 4.66907 7.09727H3.64464C3.52665 7.09659 3.4123 7.13805 3.32217 7.2142C3.23203 7.29034 3.17205 7.39617 3.15301 7.51261L2.62869 10.7917L2.47975 11.7235C2.47387 11.7603 2.47615 11.7979 2.48641 11.8337C2.49668 11.8697 2.51465 11.9029 2.53908 11.9312C2.56381 11.9596 2.59437 11.9823 2.62869 11.9978C2.66311 12.0134 2.70048 12.0215 2.73828 12.0214H4.55464C4.65801 12.022 4.7582 11.9857 4.8373 11.9192C4.91639 11.8526 4.96922 11.7601 4.98632 11.6581L5.00449 11.5673L5.34778 9.42281L5.36958 9.30536C5.38668 9.20341 5.43951 9.11088 5.5186 9.04432C5.5977 8.97776 5.69789 8.94152 5.80126 8.94208H6.07311C7.83377 8.94208 9.21178 8.23734 9.61501 6.19878C9.72128 5.85105 9.74393 5.48314 9.68111 5.125C9.6183 4.76687 9.47181 4.42863 9.25356 4.13781C9.11117 3.98257 8.94171 3.85454 8.75345 3.76001Z" fill="#167FC4"/>
<path d="M8.27047 3.57048C8.12331 3.5285 7.97368 3.49574 7.82244 3.47239C7.52349 3.42717 7.22145 3.40551 6.9191 3.40761H4.18245C4.07855 3.40752 3.97796 3.4442 3.8985 3.51114C3.81944 3.5775 3.76699 3.67016 3.75077 3.77209L3.16832 7.40481L3.15137 7.51077C3.16966 7.39472 3.22921 7.28916 3.31908 7.21349C3.4097 7.13708 3.52446 7.09525 3.643 7.09543H4.66803C6.68055 7.09543 8.25594 6.29017 8.71669 3.95978C8.73062 3.89076 8.74212 3.82356 8.75241 3.75817C8.63085 3.69532 8.50428 3.64266 8.37401 3.60075C8.3397 3.59066 8.30519 3.58057 8.27047 3.57048Z" fill="#022273"/>
<path d="M3.75138 3.77159C3.76734 3.6697 3.81959 3.57702 3.8985 3.51064C3.978 3.44382 4.07861 3.40735 4.18246 3.40771H6.91972C7.22206 3.40561 7.5241 3.42727 7.82305 3.47249C8.00997 3.50143 8.19437 3.54474 8.37462 3.60206C8.50484 3.64412 8.6314 3.69677 8.75303 3.75948C8.84097 3.41604 8.84382 3.05633 8.76131 2.71154C8.67881 2.36675 8.51344 2.04729 8.27956 1.78086C7.75887 1.19659 6.8186 0.946542 5.61557 0.946542H2.12331C2.00503 0.945821 1.89036 0.987308 1.79991 1.06355C1.70947 1.13979 1.64917 1.24578 1.62987 1.36249L0.175571 10.4522C0.168796 10.4944 0.171357 10.5375 0.183073 10.5787C0.194789 10.6198 0.215375 10.6578 0.243382 10.6901C0.27168 10.7225 0.306563 10.7485 0.345704 10.7664C0.385054 10.7843 0.42779 10.7936 0.471032 10.7936H2.62766L3.16893 7.40673L3.75138 3.77159Z" fill="#022273"/>
</svg>
