<svg width="16" height="19" viewBox="0 0 16 19" fill="none" xmlns="http://www.w3.org/2000/svg">
<path d="M0.755859 16.3998C0.756124 16.8256 0.925412 17.234 1.22654 17.5351C1.52766 17.8362 1.936 18.0055 2.36186 18.0058H14.1399C14.5657 18.0055 14.9741 17.8362 15.2752 17.5351C15.5763 17.234 15.7456 16.8256 15.7459 16.3998V7.29978H0.755859V16.3998ZM11.4629 9.84078C11.4629 9.73469 11.505 9.63295 11.58 9.55794C11.655 9.48292 11.7568 9.44078 11.8629 9.44078H13.2009C13.2534 9.44078 13.3054 9.45113 13.3539 9.47123C13.4025 9.49133 13.4466 9.52079 13.4837 9.55794C13.5208 9.59508 13.5503 9.63918 13.5704 9.68771C13.5905 9.73624 13.6009 9.78825 13.6009 9.84078V11.1788C13.6009 11.2313 13.5905 11.2833 13.5704 11.3319C13.5503 11.3804 13.5208 11.4245 13.4837 11.4616C13.4466 11.4988 13.4025 11.5282 13.3539 11.5483C13.3054 11.5684 13.2534 11.5788 13.2009 11.5788H11.8649C11.7588 11.5788 11.657 11.5366 11.582 11.4616C11.507 11.3866 11.4649 11.2849 11.4649 11.1788L11.4629 9.84078ZM11.4629 14.1238C11.4629 14.0177 11.505 13.916 11.58 13.8409C11.655 13.7659 11.7568 13.7238 11.8629 13.7238H13.2009C13.2534 13.7238 13.3054 13.7341 13.3539 13.7542C13.4025 13.7743 13.4466 13.8038 13.4837 13.8409C13.5208 13.8781 13.5503 13.9222 13.5704 13.9707C13.5905 14.0192 13.6009 14.0713 13.6009 14.1238V15.4618C13.6009 15.5143 13.5905 15.5663 13.5704 15.6149C13.5503 15.6634 13.5208 15.7075 13.4837 15.7446C13.4466 15.7818 13.4025 15.8112 13.3539 15.8313C13.3054 15.8514 13.2534 15.8618 13.2009 15.8618H11.8649C11.7588 15.8618 11.657 15.8196 11.582 15.7446C11.507 15.6696 11.4649 15.5679 11.4649 15.4618L11.4629 14.1238ZM7.17986 9.84078C7.17986 9.73469 7.222 9.63295 7.29702 9.55794C7.37203 9.48292 7.47377 9.44078 7.57986 9.44078H8.91986C9.02595 9.44078 9.12769 9.48292 9.2027 9.55794C9.27772 9.63295 9.31986 9.73469 9.31986 9.84078V11.1788C9.31986 11.2849 9.27772 11.3866 9.2027 11.4616C9.12769 11.5366 9.02595 11.5788 8.91986 11.5788H7.58186C7.47577 11.5788 7.37403 11.5366 7.29902 11.4616C7.224 11.3866 7.18186 11.2849 7.18186 11.1788L7.17986 9.84078ZM7.17986 14.1238C7.17986 14.0177 7.222 13.916 7.29702 13.8409C7.37203 13.7659 7.47377 13.7238 7.57986 13.7238H8.91986C9.02595 13.7238 9.12769 13.7659 9.2027 13.8409C9.27772 13.916 9.31986 14.0177 9.31986 14.1238V15.4618C9.31986 15.5679 9.27772 15.6696 9.2027 15.7446C9.12769 15.8196 9.02595 15.8618 8.91986 15.8618H7.58186C7.47577 15.8618 7.37403 15.8196 7.29902 15.7446C7.224 15.6696 7.18186 15.5679 7.18186 15.4618L7.17986 14.1238ZM2.89686 9.84078C2.89686 9.73469 2.939 9.63295 3.01402 9.55794C3.08903 9.48292 3.19077 9.44078 3.29686 9.44078H4.63686C4.74295 9.44078 4.84469 9.48292 4.9197 9.55794C4.99472 9.63295 5.03686 9.73469 5.03686 9.84078V11.1788C5.03686 11.2849 4.99472 11.3866 4.9197 11.4616C4.84469 11.5366 4.74295 11.5788 4.63686 11.5788H3.29886C3.19277 11.5788 3.09103 11.5366 3.01602 11.4616C2.941 11.3866 2.89886 11.2849 2.89886 11.1788L2.89686 9.84078ZM2.89686 14.1238C2.89686 14.0177 2.939 13.916 3.01402 13.8409C3.08903 13.7659 3.19077 13.7238 3.29686 13.7238H4.63686C4.74295 13.7238 4.84469 13.7659 4.9197 13.8409C4.99472 13.916 5.03686 14.0177 5.03686 14.1238V15.4618C5.03686 15.5679 4.99472 15.6696 4.9197 15.7446C4.84469 15.8196 4.74295 15.8618 4.63686 15.8618H3.29886C3.19277 15.8618 3.09103 15.8196 3.01602 15.7446C2.941 15.6696 2.89886 15.5679 2.89886 15.4618L2.89686 14.1238ZM14.1399 3.01478H12.5339V1.40878C12.5333 1.26705 12.4768 1.13128 12.3766 1.03106C12.2764 0.930841 12.1406 0.874306 11.9989 0.873779L10.9279 0.873779C10.7861 0.874306 10.6504 0.930841 10.5501 1.03106C10.4499 1.13128 10.3934 1.26705 10.3929 1.40878V3.01478H6.10986V1.40878C6.10933 1.26688 6.05266 1.13095 5.95222 1.03071C5.85179 0.930461 5.71576 0.874043 5.57386 0.873779L4.50386 0.873779C4.36213 0.874306 4.22636 0.930841 4.12614 1.03106C4.02592 1.13128 3.96939 1.26705 3.96886 1.40878V3.01478H2.36186C1.93583 3.01504 1.52734 3.18447 1.22619 3.48581C0.92503 3.78715 0.755859 4.19575 0.755859 4.62178L0.755859 6.22778H15.7459V4.62178C15.7459 4.19575 15.5767 3.78715 15.2755 3.48581C14.9744 3.18447 14.5659 3.01504 14.1399 3.01478Z" fill="#4035DA"/>
</svg>
