<svg width="26" height="26" viewBox="0 0 26 26" fill="none" xmlns="http://www.w3.org/2000/svg">
<path d="M11.0063 22.9184C11.0063 23.1213 10.9461 23.3196 10.8334 23.4883C10.7207 23.657 10.5604 23.7884 10.373 23.866C10.1855 23.9436 9.97929 23.9639 9.78032 23.9243C9.58135 23.8846 9.39861 23.7869 9.25521 23.6434C9.1118 23.4999 9.01418 23.3171 8.97469 23.1181C8.93521 22.9191 8.95562 22.7128 9.03337 22.5254C9.11111 22.338 9.24268 22.1779 9.41144 22.0653C9.5802 21.9527 9.77856 21.8927 9.98144 21.8928C10.2533 21.893 10.514 22.0012 10.7062 22.1935C10.8983 22.3858 11.0063 22.6466 11.0063 22.9184Z" stroke="#4035DA" stroke-width="3" stroke-linecap="round" stroke-linejoin="round"/>
<path d="M22.2856 22.9184C22.2856 23.1213 22.2254 23.3196 22.1127 23.4883C22 23.657 21.8397 23.7884 21.6523 23.866C21.4648 23.9436 21.2586 23.9639 21.0596 23.9243C20.8607 23.8846 20.6779 23.7869 20.5345 23.6434C20.3911 23.4999 20.2935 23.3171 20.254 23.1181C20.2145 22.9191 20.2349 22.7128 20.3127 22.5254C20.3904 22.338 20.522 22.1779 20.6907 22.0653C20.8595 21.9527 21.0579 21.8927 21.2607 21.8928C21.5326 21.893 21.7933 22.0012 21.9855 22.1935C22.1776 22.3858 22.2856 22.6466 22.2856 22.9184Z" stroke="#4035DA" stroke-width="3" stroke-linecap="round" stroke-linejoin="round"/>
<path d="M1.77783 2.40942H5.87952L8.6273 16.1393C8.72093 16.6114 8.97766 17.0356 9.35253 17.3375C9.72741 17.6394 10.1965 17.7997 10.6778 17.7906H20.6448C21.1261 17.7997 21.5952 17.6394 21.9701 17.3375C22.3449 17.0356 22.6017 16.6114 22.6953 16.1393L24.336 7.53596H6.90513" stroke="#4035DA" stroke-width="3" stroke-linecap="round" stroke-linejoin="round"/>
</svg>
