<svg width="21" height="21" viewBox="0 0 21 21" fill="none" xmlns="http://www.w3.org/2000/svg">
<path d="M20.617 10.0058C20.5924 12.6821 19.5058 15.2391 17.5962 17.1144C15.6866 18.9897 13.1103 20.0298 10.434 20.0058C7.75763 20.0298 5.18134 18.9897 3.27172 17.1144C1.3621 15.2391 0.275531 12.6821 0.250977 10.0058C0.275531 7.32944 1.3621 4.77243 3.27172 2.89713C5.18134 1.02183 7.75763 -0.018202 10.434 0.00577672C13.1103 -0.018202 15.6866 1.02183 17.5962 2.89713C19.5058 4.77243 20.5924 7.32944 20.617 10.0058ZM9.25598 15.3008L16.811 7.88178C16.8718 7.82243 16.9202 7.75152 16.9532 7.6732C16.9862 7.59489 17.0032 7.51076 17.0032 7.42578C17.0032 7.34079 16.9862 7.25666 16.9532 7.17835C16.9202 7.10003 16.8718 7.02912 16.811 6.96978L15.882 6.05778C15.7576 5.93677 15.591 5.86906 15.4175 5.86906C15.244 5.86906 15.0773 5.93677 14.953 6.05778L8.78798 12.1078L5.91498 9.28278C5.79064 9.16177 5.62398 9.09406 5.45048 9.09406C5.27697 9.09406 5.11032 9.16177 4.98598 9.28278L4.05698 10.1948C3.99614 10.2541 3.94779 10.325 3.91478 10.4033C3.88177 10.4817 3.86476 10.5658 3.86476 10.6508C3.86476 10.7358 3.88177 10.8199 3.91478 10.8982C3.94779 10.9765 3.99614 11.0474 4.05698 11.1068L8.32698 15.3008C8.45132 15.4218 8.61797 15.4895 8.79148 15.4895C8.96498 15.4895 9.13164 15.4218 9.25598 15.3008Z" fill="black"/>
</svg>
