<svg width="30" height="27" viewBox="0 0 30 27" fill="none" xmlns="http://www.w3.org/2000/svg">
<path d="M1.06283 5.0146H28.7082C28.9901 5.0146 29.2604 4.90177 29.4597 4.70092C29.659 4.50006 29.771 4.22765 29.771 3.9436V1.2646C29.771 0.980557 29.659 0.708144 29.4597 0.507292C29.2604 0.306441 28.9901 0.193604 28.7082 0.193604H1.06283C0.780953 0.193604 0.51062 0.306441 0.311301 0.507292C0.111983 0.708144 7.41331e-06 0.980557 7.41331e-06 1.2646V3.9436C7.41331e-06 4.22765 0.111983 4.50006 0.311301 4.70092C0.51062 4.90177 0.780953 5.0146 1.06283 5.0146ZM1.06283 15.7286H28.7082C28.9901 15.7286 29.2604 15.6158 29.4597 15.4149C29.659 15.2141 29.771 14.9417 29.771 14.6576V11.9746C29.771 11.6906 29.659 11.4181 29.4597 11.2173C29.2604 11.0164 28.9901 10.9036 28.7082 10.9036H1.06283C0.780953 10.9036 0.51062 11.0164 0.311301 11.2173C0.111983 11.4181 7.41331e-06 11.6906 7.41331e-06 11.9746V14.6536C-0.000515114 14.7946 0.02659 14.9343 0.079768 15.0647C0.132946 15.1951 0.21115 15.3136 0.309895 15.4135C0.408639 15.5134 0.52598 15.5926 0.655188 15.6467C0.784395 15.7008 0.922925 15.7286 1.06283 15.7286ZM1.06283 26.4426H28.7082C28.9895 26.4426 29.2594 26.3302 29.4587 26.13C29.6579 25.9298 29.7702 25.6581 29.771 25.3746V22.6936C29.771 22.4096 29.659 22.1371 29.4597 21.9363C29.2604 21.7354 28.9901 21.6226 28.7082 21.6226H1.06283C0.780953 21.6226 0.51062 21.7354 0.311301 21.9363C0.111983 22.1371 7.41331e-06 22.4096 7.41331e-06 22.6936V25.3746C0.000533156 25.6583 0.112741 25.9302 0.312002 26.1306C0.511264 26.331 0.781297 26.4426 1.06283 26.4426Z" fill="#4035DA"/>
</svg>
