<svg width="29" height="29" viewBox="0 0 29 29" fill="none" xmlns="http://www.w3.org/2000/svg">
<path d="M14.0657 0.335449C10.2625 0.335449 9.78775 0.352791 8.2942 0.419629C7.13281 0.443635 5.9838 0.663494 4.89558 1.06994C3.96083 1.4208 3.11399 1.97159 2.41427 2.68381C1.7013 3.38263 1.15017 4.22924 0.799689 5.16403C0.392684 6.25209 0.172807 7.40119 0.149375 8.56265C0.0800081 10.0573 0.065918 10.532 0.065918 14.3353C0.065918 18.1385 0.0832597 18.6133 0.150098 20.1068C0.174227 21.2682 0.394083 22.4172 0.800412 23.5054C1.15152 24.44 1.70227 25.2868 2.41427 25.9867C3.11341 26.6993 3.95993 27.2504 4.8945 27.6013C5.98278 28.0075 7.13175 28.2274 8.29311 28.2516C9.78631 28.3217 10.2614 28.3354 14.0647 28.3354C17.8679 28.3354 18.3426 28.3181 19.8362 28.2513C20.9975 28.2266 22.1464 28.0067 23.2348 27.601C24.1654 27.2416 25.0105 26.6915 25.7159 25.9861C26.4213 25.2807 26.9713 24.4356 27.3307 23.5051C27.737 22.4168 27.9569 21.2678 27.981 20.1064C28.0511 18.6133 28.0652 18.1382 28.0652 14.3349C28.0652 10.5317 28.0479 10.0569 27.981 8.56337C27.9564 7.40204 27.7366 6.25312 27.3307 5.16475C26.9795 4.23039 26.4289 3.38377 25.7172 2.68381C25.0186 1.97059 24.1719 1.41942 23.237 1.06922C22.1489 0.662336 20.9998 0.442463 19.8384 0.418906C18.3437 0.349539 17.869 0.335449 14.0657 0.335449ZM14.0657 2.85542C17.8025 2.85542 18.2483 2.8742 19.7238 2.93815C20.611 2.94895 21.4896 3.11273 22.3211 3.42227C22.9262 3.65346 23.4757 4.00964 23.9339 4.46758C24.392 4.92551 24.7484 5.4749 24.9798 6.07989C25.2884 6.91182 25.4514 7.79065 25.4618 8.6779C25.5282 10.1548 25.5434 10.5981 25.5434 14.336C25.5434 18.0739 25.5261 18.5186 25.4571 19.9941C25.4407 20.8811 25.2745 21.759 24.9657 22.5906C24.7383 23.1981 24.3807 23.7485 23.918 24.2031C23.4655 24.6665 22.9156 25.0235 22.3081 25.2483C21.4729 25.5568 20.591 25.7198 19.7007 25.7302C18.2144 25.7967 17.7769 25.8119 14.0318 25.8119C10.2867 25.8119 9.84809 25.7945 8.36284 25.7255C7.47196 25.7094 6.59014 25.5434 5.75436 25.2345C5.14653 25.0099 4.59678 24.6519 4.14556 24.1868C3.67727 23.7374 3.31813 23.1867 3.09566 22.5769C2.78738 21.7414 2.62177 20.86 2.60576 19.9695C2.55337 18.4994 2.5335 18.0457 2.5335 14.3183C2.5335 10.5909 2.55229 10.1346 2.60576 8.6461C2.62172 7.756 2.78733 6.87493 3.09566 6.03979C3.31468 5.42801 3.6743 4.87621 4.14556 4.42882C4.59233 3.95835 5.14341 3.59947 5.75436 3.38109C6.58367 3.07056 7.46008 2.9045 8.3455 2.8901C9.83291 2.83771 10.2704 2.82001 14.0144 2.82001L14.0668 2.85614L14.0657 2.85542ZM14.0657 7.14641C12.6438 7.14641 11.2537 7.56807 10.0714 8.35807C8.8891 9.14807 7.96759 10.2709 7.42343 11.5847C6.87926 12.8984 6.73689 14.344 7.0143 15.7386C7.29171 17.1333 7.97645 18.4143 8.98193 19.4198C9.98741 20.4253 11.2685 21.11 12.6631 21.3874C14.0578 21.6648 15.5033 21.5225 16.8171 20.9783C18.1308 20.4341 19.2537 19.5126 20.0437 18.3303C20.8337 17.148 21.2553 15.758 21.2553 14.336C21.2553 12.4292 20.4979 10.6005 19.1495 9.25219C17.8012 7.90388 15.9725 7.14641 14.0657 7.14641ZM14.0657 19.002C13.1427 19.002 12.2405 18.7283 11.473 18.2155C10.7056 17.7027 10.1075 16.9739 9.75424 16.1211C9.40103 15.2684 9.30861 14.3301 9.48868 13.4248C9.66875 12.5196 10.1132 11.688 10.7659 11.0354C11.4185 10.3827 12.25 9.93828 13.1553 9.75821C14.0606 9.57814 14.9989 9.67056 15.8516 10.0238C16.7043 10.377 17.4332 10.9751 17.946 11.7426C18.4588 12.51 18.7325 13.4123 18.7325 14.3353C18.7327 14.9482 18.6121 15.5551 18.3776 16.1214C18.1432 16.6877 17.7994 17.2022 17.366 17.6356C16.9327 18.0689 16.4181 18.4127 15.8518 18.6471C15.2856 18.8816 14.6786 19.0022 14.0657 19.002ZM23.2193 6.8628C23.2195 7.19511 23.1211 7.52002 22.9367 7.79644C22.7522 8.07285 22.4899 8.28835 22.1829 8.41567C21.876 8.54299 21.5382 8.57641 21.2122 8.51171C20.8863 8.44701 20.5868 8.28709 20.3518 8.05219C20.1167 7.81728 19.9566 7.51794 19.8917 7.19203C19.8268 6.86611 19.86 6.52827 19.9871 6.22123C20.1142 5.91419 20.3295 5.65175 20.6058 5.46711C20.8821 5.28246 21.207 5.1839 21.5393 5.1839C21.9846 5.18419 22.4116 5.36113 22.7265 5.67589C23.0415 5.99065 23.2187 6.41751 23.2193 6.8628Z" fill="#4035DA"/>
</svg>
