<svg width="21" height="13" viewBox="0 0 21 13" fill="none" xmlns="http://www.w3.org/2000/svg">
<path d="M13.5399 1.72437H8.13745V11.2433H13.5399V1.72437Z" fill="#FF5F00"/>
<path d="M8.47685 6.48383C8.47937 5.56379 8.69244 4.65654 9.09973 3.83157C9.50702 3.00659 10.0977 2.28578 10.8266 1.72436C9.73741 0.883424 8.39983 0.42791 7.02377 0.429295C6.22058 0.420825 5.42361 0.570768 4.67842 0.870549C3.93323 1.17033 3.25444 1.61407 2.68088 2.17638C2.10732 2.7387 1.65023 3.40857 1.33575 4.14767C1.02127 4.88678 0.85558 5.68063 0.848145 6.48383C0.85558 7.28702 1.02127 8.08087 1.33575 8.81998C1.65023 9.55909 2.10732 10.229 2.68088 10.7913C3.25444 11.3536 3.93323 11.7973 4.67842 12.0971C5.42361 12.3969 6.22058 12.5468 7.02377 12.5384C8.40127 12.5406 9.74048 12.0851 10.8309 11.2433C10.0998 10.6836 9.50727 9.96323 9.09909 9.13795C8.69091 8.31266 8.478 7.40454 8.47685 6.48383Z" fill="#EB001B"/>
<path d="M20.8282 6.48397C20.8207 7.28716 20.655 8.08101 20.3406 8.82012C20.0261 9.55923 19.569 10.2291 18.9954 10.7914C18.4219 11.3537 17.7431 11.7975 16.9979 12.0972C16.2527 12.397 15.4557 12.547 14.6525 12.5385C13.275 12.5408 11.9358 12.0853 10.8455 11.2434C11.5764 10.6839 12.1687 9.96346 12.5763 9.13807C12.9839 8.31269 13.1959 7.40451 13.1959 6.48397C13.1959 5.56342 12.9839 4.65524 12.5763 3.82986C12.1687 3.00448 11.5764 2.28407 10.8455 1.7245C11.9358 0.882675 13.275 0.42711 14.6525 0.429435C16.2738 0.415226 17.8345 1.04469 18.9923 2.17974C20.15 3.31479 20.8103 4.86273 20.8282 6.48397Z" fill="#F79E1B"/>
</svg>
