<svg width="22" height="29" viewBox="0 0 22 29" fill="none" xmlns="http://www.w3.org/2000/svg">
<path d="M11.8365 0.335449C6.08058 0.335449 0.39209 4.17236 0.39209 10.3827C0.39209 14.3322 2.6137 16.5764 3.96008 16.5764C4.516 16.5764 4.83531 15.0282 4.83531 14.5904C4.83531 14.0692 3.50561 12.9573 3.50561 10.7868C3.50561 6.27653 6.93878 3.07893 11.382 3.07893C15.204 3.07893 18.0298 5.24981 18.0298 9.23856C18.0298 12.2173 16.8349 17.805 12.964 17.805C12.6313 17.8185 12.2993 17.7652 11.9876 17.6481C11.6759 17.5311 11.3908 17.3528 11.1492 17.1238C10.9076 16.8947 10.7143 16.6195 10.5809 16.3145C10.4475 16.0094 10.3765 15.6807 10.3723 15.3478C10.3723 13.2284 11.8531 11.1742 11.8531 8.98631C11.8531 5.2724 6.58543 5.94576 6.58543 10.4338C6.55194 11.4101 6.73589 12.3816 7.12398 13.278C6.34985 16.6105 4.7679 21.5752 4.7679 25.0084C4.7679 26.0688 4.91939 27.1122 5.0205 28.1723C5.21125 28.3856 5.1157 28.363 5.40756 28.2564C8.23478 24.3854 8.13402 23.6283 9.41299 18.5624C10.103 19.8751 11.8869 20.5822 13.3006 20.5822C19.2587 20.5815 21.9341 14.7752 21.9341 9.5412C21.9341 3.97084 17.1209 0.335449 11.8365 0.335449Z" fill="#4035DA"/>
</svg>
