<svg width="22" height="24" viewBox="0 0 22 24" fill="none" xmlns="http://www.w3.org/2000/svg">
<path d="M19.7778 22.4093V20.1871C19.7778 19.0084 19.3095 17.8779 18.476 17.0444C17.6425 16.2109 16.5121 15.7427 15.3333 15.7427H6.44444C5.2657 15.7427 4.13524 16.2109 3.30175 17.0444C2.46825 17.8779 2 19.0084 2 20.1871V22.4093" stroke="#4035DA" stroke-width="3" stroke-linecap="round" stroke-linejoin="round"/>
<path d="M15.3332 6.85387C15.3332 7.7329 15.0726 8.59218 14.5842 9.32307C14.0958 10.054 13.4017 10.6236 12.5896 10.96C11.7775 11.2964 10.8839 11.3844 10.0217 11.2129C9.15958 11.0414 8.36765 10.6181 7.74609 9.99657C7.12452 9.375 6.70123 8.58307 6.52974 7.72094C6.35825 6.8588 6.44626 5.96517 6.78265 5.15305C7.11904 4.34094 7.6887 3.64681 8.41958 3.15845C9.15047 2.67009 10.0098 2.40942 10.8888 2.40942C12.0675 2.40942 13.198 2.87768 14.0315 3.71117C14.865 4.54467 15.3332 5.67513 15.3332 6.85387Z" stroke="#4035DA" stroke-width="3" stroke-linecap="round" stroke-linejoin="round"/>
</svg>
