<svg width="45" height="55" viewBox="0 0 45 55" fill="none" xmlns="http://www.w3.org/2000/svg">
<path d="M19.7336 27.5276L0.971606 8.76561C0.663658 8.45899 0.419302 8.09457 0.252567 7.69326C0.0858313 7.29196 0 6.86167 0 6.42711C0 5.99254 0.0858313 5.56226 0.252567 5.16095C0.419302 4.75965 0.663658 4.39522 0.971606 4.08861L4.08961 0.971606C4.39622 0.663658 4.76065 0.419302 5.16195 0.252567C5.56326 0.0858312 5.99354 0 6.42811 0C6.86267 0 7.29296 0.0858312 7.69426 0.252567C8.09557 0.419302 8.45999 0.663658 8.76661 0.971606L22.0666 14.2716L35.3666 0.971606C35.6732 0.663658 36.0376 0.419302 36.4389 0.252567C36.8403 0.0858312 37.2705 0 37.7051 0C38.1397 0 38.57 0.0858312 38.9713 0.252567C39.3726 0.419302 39.737 0.663658 40.0436 0.971606L43.1886 4.07161C43.4966 4.37822 43.7409 4.74265 43.9076 5.14395C44.0744 5.54526 44.1602 5.97554 44.1602 6.41011C44.1602 6.84467 44.0744 7.27496 43.9076 7.67626C43.7409 8.07757 43.4966 8.44199 43.1886 8.74861L24.4236 27.5136C24.1177 27.8244 23.7532 28.0715 23.3512 28.2406C22.9492 28.4097 22.5176 28.4975 22.0815 28.4988C21.6454 28.5001 21.2134 28.4149 20.8104 28.2482C20.4073 28.0815 20.0414 27.8366 19.7336 27.5276ZM24.4236 54.0146L43.1856 35.2526C43.4936 34.946 43.7379 34.5816 43.9046 34.1803C44.0714 33.779 44.1572 33.3487 44.1572 32.9141C44.1572 32.4795 44.0714 32.0493 43.9046 31.6479C43.7379 31.2466 43.4936 30.8822 43.1856 30.5756L40.0676 27.4586C39.761 27.1507 39.3966 26.9063 38.9953 26.7396C38.594 26.5728 38.1637 26.487 37.7291 26.487C37.2945 26.487 36.8643 26.5728 36.463 26.7396C36.0616 26.9063 35.6972 27.1507 35.3906 27.4586L22.0786 40.7436L8.77861 27.4436C8.47199 27.1357 8.10757 26.8913 7.70626 26.7246C7.30496 26.5578 6.87467 26.472 6.44011 26.472C6.00554 26.472 5.57526 26.5578 5.17395 26.7246C4.77265 26.8913 4.40822 27.1357 4.10161 27.4436L0.971606 30.5626C0.663658 30.8692 0.419302 31.2336 0.252567 31.6349C0.0858313 32.0363 0 32.4665 0 32.9011C0 33.3357 0.0858313 33.766 0.252567 34.1673C0.419302 34.5686 0.663658 34.933 0.971606 35.2396L19.7336 54.0006C20.0395 54.3114 20.404 54.5585 20.806 54.7276C21.208 54.8967 21.6396 54.9845 22.0757 54.9858C22.5118 54.9871 22.9439 54.9019 23.3469 54.7352C23.7499 54.5685 24.1158 54.3236 24.4236 54.0146Z" fill="#4035DA"/>
</svg>
