<svg width="25" height="29" viewBox="0 0 25 29" fill="none" xmlns="http://www.w3.org/2000/svg">
<path d="M12.8422 0.3586C14.3706 0.335449 15.8876 0.347221 17.4042 0.335449C17.4508 2.15567 18.1789 3.89209 19.4446 5.2011C20.7513 6.49599 22.5947 7.09125 24.3919 7.2898V11.9914C22.699 11.9502 21.0323 11.5652 19.4929 10.8598C18.8363 10.5463 18.2045 10.1836 17.6027 9.77481C17.5909 13.1819 17.6145 16.5887 17.5796 19.984C17.4906 21.6328 16.9453 23.2244 16.0045 24.5813C15.2293 25.7025 14.2013 26.6257 13.0034 27.2763C11.8056 27.927 10.4716 28.2868 9.10902 28.3267C7.43855 28.4026 5.78276 27.9845 4.34853 27.1248C3.168 26.4236 2.16796 25.4559 1.42841 24.299C0.688866 23.1421 0.230339 21.8282 0.0895128 20.4624C0.0663617 19.8789 0.05459 19.2958 0.0777411 18.7237C0.196863 17.5272 0.560353 16.368 1.1457 15.3177C1.73105 14.2675 2.52578 13.3486 3.48069 12.618C4.4356 11.8873 5.53035 11.3605 6.69712 11.0702C7.8639 10.7798 9.07786 10.7321 10.2638 10.93C10.287 12.6565 10.2171 14.3831 10.2171 16.1096C9.71935 15.9347 9.19191 15.86 8.66515 15.8897C8.13839 15.9194 7.6227 16.053 7.14775 16.2827C6.6728 16.5125 6.24796 16.8339 5.89766 17.2284C5.54737 17.6229 5.27854 18.0828 5.10663 18.5816C4.92396 19.1899 4.8684 19.8293 4.94339 20.46C5.22356 22.3737 7.06701 23.9837 9.02701 23.8087C9.67955 23.7895 10.317 23.6076 10.8814 23.2796C11.4458 22.9516 11.9194 22.4878 12.2591 21.9303C12.5192 21.5644 12.6836 21.1392 12.7375 20.6935C12.8552 18.6048 12.8073 16.5283 12.8191 14.4396C12.8308 9.73754 12.8073 5.04689 12.8422 0.356638V0.3586Z" fill="#4035DA"/>
</svg>
