<svg width="30" height="11" viewBox="0 0 30 11" fill="none" xmlns="http://www.w3.org/2000/svg">
<mask id="mask0_235_339" style="mask-type:luminance" maskUnits="userSpaceOnUse" x="0" y="0" width="30" height="11">
<path d="M29.8481 0.640381H0.180908V10.3276H29.8481V0.640381Z" fill="white"/>
</mask>
<g mask="url(#mask0_235_339)">
<path d="M13.0366 10.1878H10.6335L12.1363 0.810547H14.5393L13.0366 10.1878Z" fill="#00579F"/>
<path d="M21.7483 1.03944C21.0612 0.772429 20.33 0.637077 19.5929 0.640442C17.2195 0.640442 15.5485 1.91734 15.5364 3.74278C15.5164 5.08992 16.7327 5.83765 17.6427 6.28569C18.5727 6.74462 18.8888 7.04432 18.8888 7.453C18.8791 8.08146 18.1374 8.37087 17.4454 8.37087C16.6642 8.39263 15.8897 8.22127 15.1906 7.87198L14.8752 7.72425L14.5386 9.82941C15.3927 10.1634 16.3024 10.3325 17.2195 10.3277C19.7412 10.3277 21.3826 9.07077 21.4026 7.12485C21.4123 6.05743 20.7699 5.23946 19.3852 4.57104C18.5443 4.14238 18.0296 3.85298 18.0296 3.41402C18.0393 3.01503 18.4649 2.60635 19.4137 2.60635C20.03 2.58826 20.6423 2.71106 21.204 2.96538L21.4214 3.06226L21.7483 1.03944Z" fill="#00579F"/>
<path d="M24.9439 6.86562C25.1419 6.32677 25.9035 4.24159 25.9035 4.24159C25.8939 4.26157 26.1009 3.69305 26.2196 3.3437L26.3867 4.15198C26.3867 4.15198 26.842 6.3964 26.9407 6.86562H24.9439ZM27.9106 0.811092H26.0519C25.7853 0.779265 25.5158 0.83891 25.2876 0.980256C25.0593 1.1216 24.8859 1.33627 24.7956 1.5891L21.2234 10.1865H23.7451L24.2494 8.78007H27.3373C27.4063 9.10943 27.6242 10.1865 27.6242 10.1865H29.8481L27.9106 0.811092Z" fill="#00579F"/>
<path d="M8.62558 0.810547L6.27218 7.20474L6.01487 5.90786C5.43265 4.23117 4.24854 2.83042 2.69214 1.97726L4.84816 10.1781H7.39106L11.1673 0.810547H8.62558Z" fill="#00579F"/>
<path d="M4.08729 0.810577H0.220263L0.180908 1.00008C3.19728 1.77809 5.19467 3.65378 6.01566 5.90789L5.17469 1.59888C5.12457 1.35544 4.9852 1.13956 4.78398 0.993688C4.58276 0.847811 4.33424 0.782493 4.08729 0.810577Z" fill="#F4A622"/>
</g>
</svg>
