<svg width="149" height="25" viewBox="0 0 149 25" fill="none" xmlns="http://www.w3.org/2000/svg">
<path d="M91.2378 9.70752V10.1406" stroke="#4035DA" stroke-width="2"/>
<path d="M94.7915 10.0541V9.70752" stroke="#4035DA" stroke-width="2"/>
<mask id="mask0_154_1234" style="mask-type:luminance" maskUnits="userSpaceOnUse" x="0" y="0" width="149" height="25">
<path d="M149 0H0V24.8187H149V0Z" fill="white"/>
</mask>
<g mask="url(#mask0_154_1234)">
<path d="M41.5276 0.389966C43.9574 2.03364 41.0074 4.33406 39.3172 5.59039C39.2692 5.63226 39.2077 5.65533 39.1439 5.65533C39.0802 5.65533 39.0187 5.63226 38.9706 5.59039C38.1297 4.90543 37.3336 4.16711 36.5873 3.38001C34.8972 1.55983 37.0204 -1.21511 38.8842 0.780159C39.0142 0.910223 39.1443 0.994551 39.2308 0.953816C39.5033 0.842271 39.7317 0.644458 39.8811 0.390681C40.2277 -0.129576 40.748 -0.129576 41.5248 0.390681" fill="#4035DA"/>
<path d="M45.5588 17.3807C45.6024 12.5704 45.6024 7.80452 45.5588 2.99215C45.6091 2.58582 45.5026 2.17561 45.2609 1.84512C45.0192 1.51462 44.6606 1.28871 44.2582 1.21341C43.7818 1.1267 43.7818 1.03999 44.2582 0.953282L50.8029 0.0864258C50.8893 0.0864258 50.9765 0.130019 50.9765 0.21649C50.9329 5.80711 50.9329 11.4413 50.9765 17.0319C50.9461 17.4344 51.0604 17.8344 51.2987 18.1601C51.537 18.4858 51.8837 18.7157 52.2764 18.8085C52.3418 18.8409 52.4006 18.885 52.4501 18.9386C52.4937 19.2852 45.0829 18.9822 44.3461 18.9386C44.216 18.9386 44.216 18.895 44.3461 18.8521C45.1694 18.5484 45.561 18.0717 45.561 17.3785" fill="#4035DA"/>
<path d="M12.1015 2.81689C8.41756 2.12369 4.0404 2.68683 0.095595 2.51317C-0.0344692 2.51317 -0.0344692 2.51317 0.095595 2.59964C0.484815 2.69734 0.831282 2.91993 1.08194 3.23332C1.33259 3.5467 1.47362 3.93361 1.48342 4.33478V17.2054C1.48864 17.5913 1.36909 17.9685 1.14258 18.2809C0.91607 18.5933 0.594718 18.8242 0.226374 18.9391C0.0963097 18.9827 0.0963097 19.0256 0.226374 19.0256C5.94348 19.1993 9.50095 19.1993 10.8445 19.0256C14.2247 18.5489 16.4351 16.8152 17.432 13.8252C18.8191 9.70815 16.9989 3.72734 12.1015 2.81975M11.4083 13.7409C11.1939 15.3009 9.80468 19.1578 7.76796 18.6383C7.70837 18.6249 7.65494 18.5921 7.61611 18.545C7.57728 18.4979 7.55527 18.4392 7.55356 18.3781V3.8574C7.55356 2.64252 8.03023 2.42813 8.94068 3.1642C11.7992 5.41746 11.8878 10.4885 11.4112 13.7409" fill="#4035DA"/>
<path d="M91.2369 9.70705V10.1401C91.1068 12.2204 91.0632 14.3008 91.1068 16.4239C91.1504 17.681 91.0632 18.7644 92.2338 19.1975C92.6669 19.3275 92.624 19.4118 92.1902 19.4118H84.1291C83.6088 19.4118 83.566 19.2818 84.0426 19.0652C84.3522 18.8913 84.6036 18.6301 84.7655 18.3141C84.9274 17.9982 84.9927 17.6415 84.9531 17.2887C84.9967 13.3446 84.9967 9.35617 84.9531 5.41422C84.9907 4.95086 84.9112 4.48547 84.7219 4.06088C84.5326 3.63628 84.2395 3.26612 83.8697 2.98445C83.696 2.85438 83.696 2.81079 83.8697 2.81079H92.4075C92.5811 2.81079 92.5811 2.85438 92.4075 2.89726C90.4572 3.63405 91.064 7.9712 91.2376 9.70134" fill="#4035DA"/>
<path d="M94.7899 10.0539V9.70514C94.9635 7.92854 95.4831 3.8108 93.8366 2.90106C93.6631 2.81435 93.6631 2.771 93.8366 2.771H102.288C102.462 2.771 102.462 2.81459 102.288 2.85747C101.998 2.91992 101.735 3.06998 101.533 3.28731C101.331 3.50464 101.201 3.77871 101.161 4.07235C100.987 6.28273 100.947 10.3998 101.031 16.5071C100.995 17.0015 101.074 17.4976 101.262 17.9564C101.45 18.4152 101.742 18.8241 102.114 19.1512C102.244 19.2813 102.244 19.3249 102.071 19.3249L93.49 19.3685C93.3163 19.3685 93.3599 19.3249 93.49 19.282C94.3132 19.0219 94.747 18.5888 94.8335 17.9385C95.0388 15.3127 95.0242 12.6744 94.7899 10.051" fill="#4035DA"/>
<path d="M35.2448 7.19313C34.9846 7.10666 35.0304 7.01948 35.3312 6.97874L41.7451 6.15333C41.7736 6.1519 41.8022 6.15646 41.8288 6.16673C41.8555 6.177 41.8797 6.19274 41.8999 6.21294C41.9201 6.23314 41.9358 6.25735 41.9461 6.28401C41.9564 6.31068 41.9609 6.33919 41.9595 6.36773C41.9159 10.0081 41.9595 13.6049 42.046 17.2024C42.0302 17.5627 42.1373 17.9177 42.3499 18.2092C42.5625 18.5006 42.8679 18.711 43.2158 18.806C43.3023 18.8496 43.3895 18.8925 43.3895 18.9797C43.3459 19.1941 36.0652 19.0233 35.2855 19.0233C35.1554 19.0233 35.1554 18.9797 35.2855 18.9368C35.6477 18.8346 35.9683 18.6207 36.2017 18.3256C36.4352 18.0304 36.5694 17.6691 36.5854 17.2931C36.629 16.2097 36.629 13.4791 36.5854 9.18912C36.4554 8.10573 36.2388 7.58547 35.2419 7.19528" fill="#4035DA"/>
<path d="M62.9375 12.8285C63.024 13.0886 63.1519 13.0886 63.2405 12.8285C64.2803 10.7482 65.3645 8.75507 63.9773 6.5011C63.8909 6.32744 63.8909 6.24097 64.0209 6.24097H68.268C68.4824 6.24097 68.4824 6.32744 68.268 6.45536C66.6727 7.36442 65.4118 8.76213 64.6713 10.4423C63.4142 13.4324 62.1579 16.4231 60.9444 19.4568C60.034 21.71 56.4808 26.3888 53.6637 23.7446C52.5367 22.7048 53.4493 20.4072 55.093 20.3644C56.0463 20.3208 57.2169 21.0147 58.2131 21.3613C58.5246 21.4883 58.8729 21.4918 59.187 21.3709C59.501 21.2501 59.7571 21.0141 59.9032 20.711L60.8136 19.3674C60.9001 19.2374 60.9001 19.1073 60.8572 19.1073C60.6048 19.0281 60.3366 19.0132 60.0768 19.0637C60.0178 19.0557 59.9622 19.0314 59.9163 18.9935C59.8703 18.9557 59.8358 18.9057 59.8167 18.8493C58.5597 15.642 57.2597 12.4355 55.9577 9.22816C55.5444 8.0236 54.6938 7.01819 53.5744 6.41105C53.4443 6.36746 53.4443 6.32458 53.5744 6.32458L61.7212 6.28099C61.8077 6.28099 61.8513 6.32458 61.8513 6.36746L61.8077 6.45393C61.8019 6.45373 61.7962 6.45472 61.7908 6.45684C61.7854 6.45896 61.7805 6.46217 61.7764 6.46625C61.7723 6.47034 61.7691 6.47523 61.767 6.48061C61.7649 6.48599 61.7639 6.49174 61.7641 6.49752C61.0276 6.67094 60.8108 7.10425 61.1138 7.79745C61.6769 9.48757 62.3287 11.1777 62.934 12.8249" fill="#4035DA"/>
<path d="M113.122 17.162C111.779 20.1957 106.795 20.1521 105.235 17.3764C103.718 14.6458 105.972 8.92512 103.458 7.36507C103.285 7.2786 103.285 7.19141 103.458 7.19141L109.786 6.41102C109.848 6.40617 109.911 6.4258 109.959 6.46578C110.008 6.50575 110.039 6.56297 110.046 6.62542C110.09 8.96586 109.483 16.0729 110.999 17.5465C111.08 17.6477 111.182 17.7295 111.298 17.7856C111.414 17.8418 111.542 17.871 111.671 17.871C111.8 17.871 111.928 17.8418 112.044 17.7856C112.16 17.7295 112.262 17.6477 112.343 17.5465C113.903 15.9865 113.296 11.3056 113.296 9.18525C113.31 8.79322 113.206 8.40605 112.997 8.0738C112.789 7.74155 112.485 7.47949 112.126 7.32147C111.953 7.235 111.953 7.19141 112.126 7.14782L118.629 6.36743C118.689 6.38175 118.741 6.41485 118.78 6.46176C118.819 6.50866 118.841 6.56684 118.844 6.62756V15.299C118.799 15.5912 118.869 15.8894 119.038 16.1315C119.208 16.3736 119.464 16.5411 119.754 16.5989C119.823 16.6121 119.894 16.6022 119.957 16.5708C120.02 16.5394 120.07 16.4883 120.101 16.4253C120.968 14.996 121.098 15.1682 120.447 16.9455C119.408 19.7626 114.424 20.6295 113.687 17.1192C113.513 16.6861 113.34 16.6425 113.124 17.1628" fill="#4035DA"/>
<path d="M140.6 18.7653C140.69 18.8829 140.81 18.9735 140.948 19.0271C141.085 19.0807 141.235 19.0952 141.381 19.069C144.544 18.6359 143.938 16.1654 141.771 14.9956C140.167 14.1723 138.13 13.2619 137.047 12.0055C132.323 6.4585 146.538 4.37819 148.098 8.62529C148.189 8.82703 148.238 9.04478 148.243 9.26579C148.248 9.4868 148.21 9.70664 148.129 9.91245C148.048 10.1183 147.927 10.3059 147.773 10.4644C147.619 10.623 147.435 10.7492 147.231 10.8357C147.101 10.8793 146.971 10.8793 146.928 10.7921L143.895 7.10811C143.859 7.05996 143.813 7.01971 143.761 6.98983C143.709 6.95996 143.651 6.94111 143.592 6.93445C142.205 6.67432 141.468 7.23817 141.468 8.62457C141.479 8.97262 141.592 9.30983 141.792 9.59474C141.992 9.87965 142.271 10.0998 142.595 10.2282C144.329 11.1387 147.146 12.1785 148.272 13.522C149.789 15.2986 148.749 17.4661 146.885 18.4194C143.926 19.7496 140.562 19.8587 137.523 18.7231C135.14 17.7698 134.836 16.4263 136.613 14.6061C136.699 14.5196 136.873 14.476 136.916 14.5625L140.6 18.7653Z" fill="#4035DA"/>
<path d="M124.261 17.119C124.088 17.119 123.958 17.0754 123.915 16.9453C123.352 16.122 126.773 15.992 127.339 15.992C130.242 16.0785 133.622 15.0387 134.099 11.6584C134.446 9.18791 132.455 7.19478 130.068 6.63093C129.938 6.58734 129.808 6.50087 129.808 6.3708C129.635 5.20094 132.238 6.24074 132.755 6.24074C134.273 6.19714 134.706 4.68068 133.579 3.81097C132.279 2.81405 130.068 5.06802 129.202 6.28147C129.161 6.33274 129.108 6.37196 129.046 6.39489C128.985 6.41782 128.919 6.42358 128.855 6.41154C123.481 5.58827 118.324 11.4855 124.391 15.1223C124.912 15.426 124.868 15.6854 124.305 15.8591C122.485 16.4658 121.574 17.3762 121.488 18.6326C121.228 23.5729 133.536 20.3227 133.752 22.0128C133.816 22.2884 133.771 22.578 133.625 22.8206C133.479 23.0631 133.245 23.2396 132.972 23.3127C127.898 25.3931 125.734 23.5729 121.791 20.9723C121.762 20.9491 121.73 20.9319 121.695 20.9215C121.66 20.9111 121.623 20.9079 121.586 20.9119C121.55 20.916 121.515 20.9273 121.483 20.9451C121.451 20.963 121.423 20.987 121.401 21.0159L120.794 22.2729C120.75 22.3165 120.837 22.4873 120.924 22.6631C122.918 25.9133 133.969 25.6103 134.922 20.8865C135.962 16.1628 126.861 16.986 124.261 17.1161M127.945 6.76171C128.552 6.76171 129.072 8.75555 129.072 11.2253C129.072 13.6951 128.552 15.689 127.945 15.689C127.339 15.689 126.818 13.6951 126.818 11.2253C126.818 8.75555 127.339 6.76171 127.945 6.76171Z" fill="#4035DA"/>
<path d="M91.2373 9.70752H94.7926V10.0541L91.2387 10.1406L91.2373 9.70752Z" fill="#4035DA"/>
<path d="M73.2082 11.2679C73.8586 10.7912 74.6375 10.9213 75.638 11.701C75.7031 11.7477 75.783 11.7691 75.8628 11.7611C75.9425 11.7531 76.0166 11.7162 76.0711 11.6574C77.7147 9.75072 79.9301 12.1776 78.5009 13.9978C77.7592 14.9389 76.8478 15.7328 75.8138 16.3383C75.7603 16.3735 75.696 16.3885 75.6325 16.3805C75.5689 16.3725 75.5103 16.342 75.4672 16.2947C74.0801 15.1248 71.0465 12.8708 73.214 11.2672" fill="#4035DA"/>
<path d="M34.2904 15.2116C34.2039 15.168 34.076 15.2981 34.076 15.426C33.9895 16.0763 33.7723 16.3793 33.4257 16.3793C33.2975 16.3834 33.1699 16.3597 33.0518 16.3098C32.9336 16.2599 32.8277 16.185 32.7412 16.0903C32.6547 15.9956 32.5897 15.8833 32.5507 15.7611C32.5117 15.6389 32.4996 15.5097 32.5152 15.3824C32.4716 13.3886 32.6017 10.5286 31.9085 8.96854C30.3049 5.45824 24.6714 5.80484 21.6806 6.80176C21.34 6.87471 21.0376 7.06912 20.8298 7.3487C20.622 7.62827 20.5231 7.97391 20.5515 8.32108C20.6101 9.23815 20.9765 10.1086 21.5913 10.7916C21.6192 10.8105 21.6508 10.8232 21.6839 10.8291C21.7171 10.835 21.7512 10.8338 21.7839 10.8256C21.8165 10.8175 21.8472 10.8025 21.8737 10.7818C21.9002 10.761 21.9221 10.7349 21.9379 10.7051L25.1452 6.84607C25.1815 6.78512 25.2319 6.73382 25.2923 6.6965C25.3526 6.65918 25.421 6.63695 25.4918 6.63168C27.009 6.45802 27.0518 9.62172 26.921 10.6622C26.9138 10.7247 26.8827 10.7819 26.8342 10.8219C26.7857 10.8619 26.7236 10.8815 26.6609 10.8766C23.8874 10.9202 19.2065 11.5698 18.99 15.2974C18.7299 19.8482 24.8407 20.4549 26.8346 16.4244C26.9646 16.1206 27.049 16.1206 27.0947 16.468C27.1063 16.8359 27.191 17.1978 27.3437 17.5327C27.4965 17.8676 27.7142 18.1688 27.9844 18.4189C28.2546 18.6689 28.5717 18.8627 28.9175 18.9891C29.2632 19.1155 29.6306 19.1719 29.9983 19.155C32.1651 19.1986 33.5951 18.028 34.2861 15.7312C34.4595 15.4277 34.4595 15.2543 34.2861 15.2109M25.9248 16.901C25.8205 16.9852 25.6905 17.0311 25.5564 17.0311C25.4224 17.0311 25.2924 16.9852 25.1881 16.901C23.9732 16.0778 23.931 11.0939 26.7052 11.2239C26.7338 11.2225 26.7623 11.2271 26.7889 11.2373C26.8156 11.2476 26.8398 11.2633 26.86 11.2835C26.8802 11.3038 26.896 11.328 26.9062 11.3546C26.9165 11.3813 26.9211 11.4098 26.9196 11.4383C27.0061 13.4322 27.3098 15.8155 25.9227 16.8989" fill="#4035DA"/>
</g>
</svg>
