<svg xmlns="http://www.w3.org/2000/svg" width="23" height="23" viewBox="0 0 23 23" fill="none">
  <g filter="url(#filter0_d_154_1703)">
    <path d="M15.3981 3.23816C15.3981 4.20484 14.415 6.00359 13.2742 7.32866C14.2256 6.67708 15.3715 6.11192 16.1561 5.77997C17.1442 5.36206 19.359 5.44428 20.1705 6.87395C20.982 8.30361 20.2069 10.1128 18.8013 10.9382C17.9976 11.4101 16.0496 11.4531 14.3769 11.136C15.3463 11.6402 16.315 12.3114 16.9491 12.8049C17.7991 13.4664 18.8646 15.4096 18.053 16.8393C17.2415 18.269 15.3136 18.4906 13.908 17.6652C13.0498 17.1614 11.945 15.2813 11.3994 13.5682C11.5313 14.7764 11.468 16.1663 11.3733 17.073C11.2604 18.1553 10.0748 19.9602 8.45225 19.9993C6.82966 20.0384 5.64026 18.4793 5.60184 16.8289C5.58302 16.026 6.24182 14.6638 7.11027 13.472C6.36586 13.9002 5.60917 14.2623 5.036 14.5059C3.9987 14.9466 1.67954 14.8741 0.837875 13.3913C-0.00379086 11.9084 0.818423 10.0213 2.29528 9.15402C3.11128 8.67482 5.04429 8.60606 6.75281 8.89066C6.42597 8.74374 6.10327 8.58514 5.79603 8.42443C5.26272 8.14566 4.77596 7.86041 4.39459 7.61911C3.44004 7.01487 2.1537 5.05086 2.85379 3.49357C3.55372 1.93644 5.54221 1.52389 7.09321 2.24521C7.82614 2.58608 9.03081 3.98542 9.68357 6.22722C9.35734 4.56663 9.61071 3.55795 9.68357 2.98907C9.82165 1.90968 10.9992 0 12.6223 0C14.2452 0 15.3981 1.58729 15.3981 3.23816Z" fill="#FFA4A4"/>
  </g>
  <defs>
    <filter id="filter0_d_154_1703" x="0.5" y="0" width="22" height="23" filterUnits="userSpaceOnUse" color-interpolation-filters="sRGB">
      <feFlood flood-opacity="0" result="BackgroundImageFix"/>
      <feColorMatrix in="SourceAlpha" type="matrix" values="0 0 0 0 0 0 0 0 0 0 0 0 0 0 0 0 0 0 127 0" result="hardAlpha"/>
      <feOffset dx="2" dy="3"/>
      <feComposite in2="hardAlpha" operator="out"/>
      <feColorMatrix type="matrix" values="0 0 0 0 0.25098 0 0 0 0 0.207843 0 0 0 0 0.854902 0 0 0 1 0"/>
      <feBlend mode="normal" in2="BackgroundImageFix" result="effect1_dropShadow_154_1703"/>
      <feBlend mode="normal" in="SourceGraphic" in2="effect1_dropShadow_154_1703" result="shape"/>
    </filter>
  </defs>
</svg>